<svg xmlns="http://www.w3.org/2000/svg" width="318.196" height="44.845" viewBox="0 0 318.196 44.845">
  <g id="verdures" transform="translate(-394 -331.522)">
    <path id="パス_1" data-name="パス 1" d="M341.648,353.269l16.337,41.017,16.086-41.017" transform="translate(57 -20.453)" fill="none" stroke="#002903" stroke-linejoin="bevel" stroke-width="7" opacity="0.999"/>
    <path id="パス_2" data-name="パス 2" d="M385.528,356.533h29.434" transform="translate(53.353 -20)" fill="none" stroke="#002903" stroke-width="7"/>
    <path id="パス_3" data-name="パス 3" d="M385.1,353.073v41.959" transform="translate(57 -20)" fill="none" stroke="#002903" stroke-width="7"/>
    <path id="パス_4" data-name="パス 4" d="M381.882,374.052l27.085.093" transform="translate(57 -20)" fill="none" stroke="#002903" stroke-width="7"/>
    <path id="パス_5" data-name="パス 5" d="M381.882,391.285l30.2.1" transform="translate(57 -20)" fill="none" stroke="#002903" stroke-width="7"/>
    <path id="パス_6" data-name="パス 6" d="M421.561,353.118v41.936" transform="translate(57 -20)" fill="none" stroke="#002903" stroke-width="7"/>
    <path id="パス_7" data-name="パス 7" d="M418.234,356.533s13.077-.007,16.542,0,13.426-.44,13.405,9.889-9.427,11.308-13.405,11.335-16.542,0-16.542,0" transform="translate(57 -20)" fill="none" stroke="#002903" stroke-width="7"/>
    <path id="パス_8" data-name="パス 8" d="M436.619,377.515l11.562,16.873" transform="translate(57 -20)" fill="none" stroke="#002903" stroke-width="7"/>
    <path id="パス_9" data-name="パス 9" d="M462.189,353.325v41.611" transform="translate(57 -20)" fill="none" stroke="#002903" stroke-width="7"/>
    <path id="パス_10" data-name="パス 10" d="M458.824,356.678s11.542-.045,14.641,0,19.563.429,19.4,17.262-15.573,17.977-19.4,18.063-14.641,0-14.641,0" transform="translate(57 -20)" fill="none" stroke="#002903" stroke-width="7"/>
    <path id="パス_11" data-name="パス 11" d="M505.468,353.265s.046,19.681,0,24.282a14.02,14.02,0,0,0,.4,3.174c1.016,4.665,4.933,11.443,13.7,11.219,10.651-.272,14.881-7.962,14.936-14.393s0-24.282,0-24.282" transform="translate(57 -20)" fill="none" stroke="#002903" stroke-width="7"/>
    <path id="パス_12" data-name="パス 12" d="M421.561,353.118v41.936" transform="translate(185 -20)" fill="none" stroke="#002903" stroke-width="7"/>
    <path id="パス_13" data-name="パス 13" d="M418.234,356.533s13.077-.007,16.542,0,13.426-.44,13.405,9.889-9.427,11.308-13.405,11.335-16.542,0-16.542,0" transform="translate(185 -20)" fill="none" stroke="#002903" stroke-width="7"/>
    <path id="パス_14" data-name="パス 14" d="M436.619,377.515l11.562,16.873" transform="translate(185 -20)" fill="none" stroke="#002903" stroke-width="7"/>
    <path id="パス_15" data-name="パス 15" d="M385.528,356.533h29.434" transform="translate(258.353 -20)" fill="none" stroke="#002903" stroke-width="7"/>
    <path id="パス_16" data-name="パス 16" d="M385.1,353.073v41.959" transform="translate(262 -20)" fill="none" stroke="#002903" stroke-width="7"/>
    <path id="パス_17" data-name="パス 17" d="M381.882,374.052l27.085.093" transform="translate(262 -20)" fill="none" stroke="#002903" stroke-width="7"/>
    <path id="パス_18" data-name="パス 18" d="M381.882,391.285l30.2.1" transform="translate(262 -20)" fill="none" stroke="#002903" stroke-width="7"/>
    <path id="パス_19" data-name="パス 19" d="M648.492,359.576s-3.489-4.148-11.964-3.954-11.819,3.546-11.846,8.687,4.317,7.1,10.531,9.015,12.923,3.143,12.722,10.292-8.159,8.528-11.407,8.528c-.63,0-1.308-.026-2.32-.109a17.163,17.163,0,0,1-8.227-2.6c-2.785-2.026-4.4-3.239-4.4-3.239" transform="translate(57 -20)" fill="none" stroke="#002903" stroke-width="7"/>
    <path id="パス_20" data-name="パス 20" d="M337,393.834h87.917" transform="translate(57 -19.334)" fill="none" stroke="#002903" stroke-width="3"/>
    <path id="パス_21" data-name="パス 21" d="M444.7,393.834l108.012-.17" transform="translate(57 -19.164)" fill="none" stroke="#002903" stroke-width="3"/>
    <path id="パス_22" data-name="パス 22" d="M572.013,394.388H654.2" transform="translate(58 -19.888)" fill="none" stroke="#002903" stroke-width="3"/>
  </g>
</svg>
